<?xml version="1.0" encoding="UTF-8"?>
<svg xmlns="http://www.w3.org/2000/svg" viewBox="0 0 432 429.66">
  <defs>
    <style>.cls-1{fill:#154d98;}.cls-2{fill:#fff;}.cls-3{fill:#e22428;}</style>
  </defs>
  <title>kenchic-logo</title>
  <g id="Layer_2" data-name="Layer 2">
    <g id="Layer_1-2" data-name="Layer 1">
      <path class="cls-1" d="M364.18,151c0,83.41-66,151-147.46,151S69.26,234.43,69.26,151,135.3,0,216.72,0,364.18,67.63,364.18,151"></path>
      <path class="cls-1" d="M348.71,151c0,74.69-59.1,135.21-132,135.21s-132-60.52-132-135.21,59.11-135.18,132-135.18,132,60.52,132,135.18"></path>
      <path class="cls-2" d="M216.72,289.65C142.1,289.65,81.4,227.47,81.4,151s60.7-138.6,135.32-138.6S352,74.61,352,151s-60.7,138.62-135.32,138.62m0-270.36C145.79,19.29,88.05,78.38,88.05,151s57.74,131.76,128.67,131.76S345.39,223.69,345.39,151,287.66,19.29,216.72,19.29"></path>
      <path class="cls-2" d="M134.55,254.58s-8.79-34.51,24.68-61.47c0,0,13.66-7.85,16.9-33.88,0,0,3.9-15.64-4.55-33.5,0,0-4.24-6.83-1-21.82,0,0,1.3-3.55,6.5-1,0,0,12.36,5.84,18.86,3.9,0,0,13-7.82.31-19.84a12.7,12.7,0,0,0-14,.3s-5.87,5.55-7.47-.62c0,0-2.93-3.26,7.13-9.45,0,0,42.9-27.34,72.45,17.27,0,0,11.38,20.18,5.84,49.1,0,0-10.72,68.39,40.3,108.73l-1,1.29-1.95,2s-77-9.77-162.08,1.3Z"></path>
      <path class="cls-3" d="M140.06,186.56s-16.81-2.76-19.5-20.55c0,0-2.2-12.94,10-29.32L138.11,124s6.83-14.62-8-18.55l-9.26-1s-7.31,1.49-6.33-2.91c0,0-1-3.44,10.46-9.73,0,0,21.69-8.07,33.14-26.37a34.13,34.13,0,0,0,5.35-16.65s.75-8,6.11-3.88l5.36,6.1s4.14,5.13,7.55-2l5.12-11.95s1.94-5.63,6.08-4.41c0,0,1.71.75,1.71,6.13,0,0,0,7.56,5.13,5.82,0,0,3.88-.72,6.09-6.58l3.9-6.59s2.44-4.13,5.84-2.17c0,0,2.19,1.94,1.22,7.32,0,0-.75,4.62,3.15,4.13,0,0,3.66,1.71,7.81-5.15,0,0,4.63-7,8-5.59,0,0,2.42,1.22.24,7.83,0,0-1.95,3.4,1.22,4.89,0,0,2.2,3.87,9.26-2,0,0,4.15-4.89,7.08-.48,0,0,2.91,2.45-4.89,8.77,0,0-5.62,7.6-20.22,9.29,0,0-38,0-48.23,6.33,0,0-23.88,12-23.62,39.07,0,0-1.47,10.49,5.36,33.68,0,0,8.52,33.21-8.78,44.93,0,0-6.58,4.29-13.88,4.2"></path>
      <path class="cls-2" d="M65.14,279.7s85.08-24.92,101.79-17.83v51.6s-45.16,5.35-77.1,15l5.51-28.5Z"></path>
      <path class="cls-1" d="M86.63,332l6-30.85L59.35,278.77l5.14-1.5c2.67-.78,65.78-19.15,93.26-19.15,4.49,0,7.78.47,10.11,1.47l1.49.63v55.47l-2.14.23c-.46.08-45.34,5.44-76.73,14.84ZM71,280.6l27.08,18.16L93,324.86c27.39-7.68,62.57-12.44,71.55-13.64V263.69a31.89,31.89,0,0,0-6.76-.57c-22.34,0-70.86,13-86.77,17.48"></path>
      <path class="cls-2" d="M262.73,313.12s59.39,6.76,78.83,16.68l-5.88-30.57,28.13-18.12s-76.42-25.29-101.41-24.22Z"></path>
      <path class="cls-1" d="M344.9,334.32,340.49,332c-18.83-9.62-77.43-16.37-78-16.45l-2.16-.23-.37-60.88,2.34-.07c25.1-1,99.18,23.3,102.23,24.32l5,1.64-31.14,20Zm-79.76-23.45c10.21,1.25,52.87,6.76,73.16,14.77L333,298l25.1-16.19c-16.74-5.31-70.84-22.07-93.23-22.47Z"></path>
      <path class="cls-2" d="M87.74,261.86s72.91-18.84,126.73-17S343.31,262.6,343.31,262.6l-25,51.93s-65.67-13.21-109.7-11.74-96.92,12.42-96.92,12.42Z"></path>
      <path class="cls-1" d="M110.27,318.06l-26-57.87,2.82-.71c.72-.19,73.9-18.92,127.42-17.16S343.05,260,343.8,260.19l3.09.63-27.23,56.55-1.82-.4c-.65-.12-65.86-13.09-109.16-11.68s-96,12.28-96.51,12.39ZM91.18,263.57l21.91,48.85c9.83-2,56.27-10.86,95.43-12.17,39.71-1.24,97.46,9.37,108.42,11.48l22.81-47.33c-14.69-3-78.51-15.56-125.36-17.14S105.17,260.19,91.18,263.57"></path>
      <polygon class="cls-1" points="115.64 298.09 111.68 276.02 115.99 275.25 117.77 284.99 124.78 273.57 130.66 272.44 124.08 282.52 135.02 294.43 129.34 295.51 121.63 286.29 118.75 290.63 119.98 297.26 115.64 298.09"></polygon>
      <path class="cls-1" d="M132.39,272.2l4.37-.71,1.85,12a24.34,24.34,0,0,0,.71,3.69,3.67,3.67,0,0,0,1.68,1.93,4.15,4.15,0,0,0,3,.38,4.34,4.34,0,0,0,2.66-1.2,3.21,3.21,0,0,0,.84-2.11,24.52,24.52,0,0,0-.4-3.82L145.2,270.1l4.35-.71,1.8,11.67a28.7,28.7,0,0,1,.52,5.66,6.4,6.4,0,0,1-.86,3,6.87,6.87,0,0,1-2.26,2.23,11.3,11.3,0,0,1-4,1.31,10.86,10.86,0,0,1-4.8,0,6.69,6.69,0,0,1-2.8-1.46,6.28,6.28,0,0,1-1.61-2.31,26.18,26.18,0,0,1-1.27-5.55Z"></path>
      <polygon class="cls-1" points="155.94 291.07 153.17 268.88 157.53 268.26 158.76 278.13 166.42 267.13 172.34 266.35 165.2 276.01 175.51 288.49 169.78 289.29 162.55 279.58 159.47 283.78 160.31 290.51 155.94 291.07"></polygon>
      <path class="cls-1" d="M174.21,266.15l4.38-.4,1,12.12a24.61,24.61,0,0,0,.48,3.73,3.57,3.57,0,0,0,1.53,2.08,4.46,4.46,0,0,0,3,.57,4.35,4.35,0,0,0,2.75-1.06,3.15,3.15,0,0,0,1-2,29.79,29.79,0,0,0-.14-3.84L187.12,265l4.39-.39,1,11.73a33.56,33.56,0,0,1,.15,5.7,6.27,6.27,0,0,1-1.09,2.93,6.52,6.52,0,0,1-2.41,2,10.34,10.34,0,0,1-4.11,1.08,11.1,11.1,0,0,1-4.76-.34,6.25,6.25,0,0,1-2.72-1.68,6.13,6.13,0,0,1-1.46-2.39,30.07,30.07,0,0,1-.93-5.63Z"></path>
      <polygon class="cls-1" points="202.97 286.29 203.34 263.88 209.98 263.94 213.65 279.32 217.75 264.1 224.39 264.21 224.05 286.59 219.96 286.54 220.22 268.91 215.64 286.48 211.36 286.41 207.37 268.69 207.08 286.33 202.97 286.29"></polygon>
      <polygon class="cls-1" points="226.71 286.85 228.04 264.48 243.02 265.41 242.81 269.2 232.22 268.56 231.9 273.81 241.06 274.36 240.82 278.16 231.67 277.61 231.12 287.11 226.71 286.85"></polygon>
      <path class="cls-1" d="M261.79,289.5l-4.74-.38-1.45-5.21-8.74-.78L244.61,288l-4.67-.42L250.18,266l4.68.41Zm-7.28-9.55-2.4-8.55-3.6,8Z"></path>
      <polygon class="cls-1" points="262.62 289.65 265 267.57 269.36 268.06 267.41 286.38 278.35 287.56 277.94 291.33 262.62 289.65"></polygon>
      <polygon class="cls-1" points="279.39 291.52 282.15 269.24 288.75 270.14 290.74 285.81 296.45 271.14 303.06 271.96 300.3 294.25 296.2 293.74 298.39 276.19 291.96 293.13 287.7 292.59 285.64 274.55 283.45 292.04 279.39 291.52"></polygon>
      <polygon class="cls-1" points="303.07 294.62 306.26 272.44 322.31 274.91 321.76 278.69 310.09 276.92 309.37 281.78 320.24 283.42 319.7 287.18 308.82 285.55 307.95 291.52 320.04 293.34 319.5 297.14 303.07 294.62"></polygon>
      <polygon class="cls-1" points="5.16 356.73 20.9 356.73 20.9 383 21.12 383 38.52 356.73 54.34 356.73 37.01 382.51 58.69 410.94 41.06 410.94 21.12 384.76 20.9 384.76 20.9 410.94 5.16 410.94 5.16 356.73"></polygon>
      <polygon class="cls-1" points="75.9 356.73 116.42 356.73 116.42 366.1 91.65 366.1 91.65 378.71 114.69 378.71 114.69 388.07 91.65 388.07 91.65 401.58 117.36 401.58 117.36 410.94 75.9 410.94 75.9 356.73"></polygon>
      <polygon class="cls-1" points="138.31 356.73 152.99 356.73 171.82 387.36 172.03 387.36 172.03 356.73 186.88 356.73 186.88 410.94 173.13 410.94 153.4 378.97 153.2 378.97 153.2 410.94 138.31 410.94 138.31 356.73"></polygon>
      <path class="cls-1" d="M252.25,407.61c-4.68,2.84-9.58,4.07-16.18,4.07-16.6,0-28.2-10.61-28.2-27.34,0-17.12,11.08-28.31,28.2-28.31a41.88,41.88,0,0,1,15.67,3v10.36c-5.09-2.28-8.45-3.13-11.9-3.13-9.09,0-15.91,5.46-15.91,17.39,0,11.49,5.31,17.76,15.08,17.76,4.09,0,8.74-1.74,13.24-4.36Z"></path>
      <polygon class="cls-1" points="274.13 356.73 289.91 356.73 289.91 378.89 307.32 378.89 307.32 356.73 323.09 356.73 323.09 410.94 307.32 410.94 307.32 388.22 289.91 388.22 289.91 410.94 274.13 410.94 274.13 356.73"></polygon>
      <rect class="cls-1" x="347.02" y="356.73" width="15.79" height="54.21"></rect>
      <path class="cls-1" d="M428.21,407.61c-4.7,2.84-9.58,4.07-16.22,4.07-16.6,0-28.2-10.61-28.2-27.34,0-17.12,11.11-28.31,28.2-28.31a41.92,41.92,0,0,1,15.7,3v10.36c-5.1-2.28-8.45-3.13-11.91-3.13-9.05,0-15.9,5.46-15.9,17.39,0,11.49,5.31,17.76,15.08,17.76,4,0,8.77-1.74,13.25-4.36Z"></path>
      <rect class="cls-1" y="337.45" width="432" height="4.73"></rect>
      <rect class="cls-1" y="424.93" width="432" height="4.74"></rect>
    </g>
  </g>
</svg>
